<svg width="18" height="18" viewBox="0 0 18 18" fill="none" xmlns="http://www.w3.org/2000/svg">
<path d="M9.0625 17.5001C6.65898 17.5001 4.35389 16.5453 2.65434 14.8457C0.954796 13.1462 0 10.8411 0 8.4376C0 4.76572 2.10937 1.47353 5.37539 0.0520503C5.4905 0.0018843 5.61804 -0.0124487 5.74141 0.0109193C5.86478 0.0342872 5.97825 0.0942724 6.06704 0.183059C6.15582 0.271845 6.21581 0.385315 6.23918 0.508684C6.26255 0.632053 6.24821 0.759601 6.19805 0.874706C5.82305 1.73564 5.625 2.83838 5.625 4.0626C5.625 8.37041 9.12969 11.8751 13.4375 11.8751C14.6617 11.8751 15.7645 11.677 16.6254 11.302C16.7405 11.2519 16.868 11.2375 16.9914 11.2609C17.1148 11.2843 17.2283 11.3443 17.317 11.4331C17.4058 11.5218 17.4658 11.6353 17.4892 11.7587C17.5125 11.8821 17.4982 12.0096 17.448 12.1247C16.0266 15.3907 12.7344 17.5001 9.0625 17.5001Z" fill="#EFEFF8"/>
</svg>
