<svg width="16" height="12" viewBox="0 0 16 12" fill="none" xmlns="http://www.w3.org/2000/svg">
<path d="M6.1299 5.80203C8.77484 5.80203 10.919 7.94618 10.919 10.5911V10.5911C10.919 11.0132 10.5768 11.3554 10.1547 11.3554H2.10513C1.68302 11.3554 1.34082 11.0132 1.34082 10.5911V10.5911C1.34082 7.94618 3.48497 5.80203 6.1299 5.80203ZM6.1299 5.80203C7.5541 5.80203 8.70864 4.6475 8.70864 3.2233C8.70864 1.7991 7.5541 0.644562 6.1299 0.644562C4.70571 0.644562 3.55117 1.7991 3.55117 3.2233C3.55117 4.6475 4.70571 5.80203 6.1299 5.80203ZM11.7121 6.28604C13.3397 6.28604 14.6592 7.60552 14.6592 9.23317V9.23317C14.6592 9.64008 14.3293 9.96995 13.9224 9.96995H12.8172M11.7121 6.28604C12.5259 6.28604 13.1856 5.62631 13.1856 4.81248C13.1856 3.99865 12.5259 3.33891 11.7121 3.33891C10.8982 3.33891 10.2385 3.99865 10.2385 4.81248C10.2385 5.62631 10.8982 6.28604 11.7121 6.28604Z" stroke="#7E7E8B" stroke-linecap="round"/>
</svg>
