<svg width="24" height="24" viewBox="0 0 24 24" fill="none" xmlns="http://www.w3.org/2000/svg">
<path d="M2.35326 12.1514L6.96167 13.8306L8.7454 19.4309C8.85953 19.7896 9.3088 19.9222 9.607 19.6842L12.1758 17.6397C12.4451 17.4255 12.8286 17.4149 13.11 17.6143L17.7432 20.8982C18.0622 21.1246 18.5141 20.9539 18.5941 20.5776L21.9882 4.63909C22.0756 4.22802 21.6618 3.88509 21.2609 4.03648L2.34786 11.1594C1.88113 11.3351 1.88519 11.9802 2.35326 12.1514ZM8.45793 12.9367L17.4645 7.52128C17.6263 7.42424 17.7929 7.63791 17.6539 7.76379L10.2209 14.5091C9.9596 14.7465 9.79107 15.0643 9.74334 15.4092L9.49014 17.241C9.4566 17.4856 9.10467 17.5099 9.03553 17.2732L8.06173 13.9327C7.9502 13.5517 8.11273 13.1448 8.45793 12.9367Z" fill="#04C800"/>
</svg>
