<svg width="24" height="24" viewBox="0 0 24 24" fill="none" xmlns="http://www.w3.org/2000/svg">
<path d="M23.6788 16.7479C23.6512 16.6884 23.6255 16.639 23.6016 16.5995C23.206 15.887 22.4501 15.0126 21.3342 13.9758L21.3107 13.9521L21.2988 13.9404L21.2869 13.9285H21.2749C20.7685 13.4457 20.4478 13.1211 20.3135 12.955C20.0678 12.6384 20.0128 12.3179 20.147 11.9933C20.2419 11.7479 20.5983 11.2299 21.2154 10.4384C21.54 10.0189 21.7971 9.68268 21.987 9.42938C23.3562 7.60909 23.9498 6.4459 23.7677 5.93936L23.6969 5.82099C23.6494 5.74972 23.5268 5.68453 23.3291 5.62507C23.1311 5.56574 22.8779 5.55593 22.5692 5.59547L19.1505 5.61908C19.0951 5.59946 19.016 5.60129 18.913 5.62507C18.8101 5.64885 18.7586 5.66079 18.7586 5.66079L18.6991 5.69051L18.6519 5.72623C18.6123 5.74985 18.5687 5.79138 18.5212 5.85076C18.4739 5.90992 18.4344 5.97936 18.4028 6.05848C18.0306 7.01606 17.6074 7.90638 17.1325 8.72937C16.8396 9.22012 16.5707 9.64542 16.3251 10.0055C16.0798 10.3655 15.8741 10.6307 15.708 10.8008C15.5417 10.9709 15.3916 11.1073 15.2568 11.2103C15.1222 11.3133 15.0195 11.3568 14.9483 11.3409C14.877 11.325 14.8099 11.3092 14.7463 11.2934C14.6356 11.2221 14.5465 11.1252 14.4794 11.0025C14.4119 10.8799 14.3665 10.7255 14.3428 10.5395C14.3192 10.3534 14.3052 10.1933 14.3012 10.0588C14.2975 9.92433 14.2992 9.73419 14.3072 9.48888C14.3155 9.24344 14.3192 9.07738 14.3192 8.99032C14.3192 8.68954 14.325 8.36311 14.3368 8.01095C14.3488 7.65878 14.3585 7.37975 14.3666 7.17419C14.3746 6.96842 14.3784 6.75071 14.3784 6.5212C14.3784 6.29169 14.3644 6.1117 14.3368 5.98106C14.3095 5.85059 14.2677 5.72394 14.2125 5.60116C14.157 5.47851 14.0757 5.38363 13.9691 5.31627C13.8623 5.249 13.7295 5.19561 13.5715 5.15594C13.152 5.06102 12.6178 5.00967 11.9688 5.00169C10.4969 4.98589 9.55108 5.08094 9.13164 5.28671C8.96545 5.37365 8.81506 5.49244 8.6806 5.6427C8.53811 5.81687 8.51824 5.91192 8.6211 5.92755C9.09601 5.99869 9.43221 6.16887 9.63008 6.43792L9.70138 6.58049C9.75685 6.68336 9.81223 6.86547 9.86765 7.12658C9.92299 7.38769 9.95871 7.67653 9.97443 7.99294C10.0139 8.57075 10.0139 9.06537 9.97443 9.47682C9.9348 9.88845 9.89738 10.2089 9.86167 10.4384C9.82595 10.6679 9.77256 10.8539 9.70138 10.9963C9.63008 11.1387 9.58264 11.2258 9.55885 11.2574C9.53511 11.289 9.51532 11.3089 9.4996 11.3167C9.39674 11.3562 9.28976 11.3762 9.17904 11.3762C9.06815 11.3762 8.93368 11.3208 8.77544 11.2099C8.61723 11.0991 8.45304 10.9468 8.28286 10.7529C8.11268 10.5589 7.92076 10.2879 7.70701 9.93971C7.49342 9.59154 7.27181 9.18004 7.0423 8.70522L6.85241 8.36087C6.7337 8.13934 6.57155 7.81678 6.36578 7.39347C6.15988 6.97 5.9779 6.56037 5.81969 6.16467C5.75645 5.99848 5.66145 5.87196 5.53484 5.7849L5.47543 5.74918C5.43593 5.71758 5.37252 5.68403 5.28554 5.64827C5.19843 5.61255 5.10754 5.58694 5.01249 5.57118L1.75988 5.5948C1.42751 5.5948 1.20199 5.6701 1.08324 5.82049L1.03572 5.89163C1.01197 5.93125 1 5.99453 1 6.08164C1 6.1687 1.02374 6.27556 1.07126 6.40208C1.54609 7.51804 2.06245 8.59429 2.62034 9.63099C3.17824 10.6677 3.66304 11.5028 4.07445 12.1355C4.48595 12.7687 4.90539 13.3663 5.33277 13.928C5.76015 14.49 6.04305 14.8501 6.18146 15.0083C6.32004 15.1668 6.42889 15.2853 6.50802 15.3644L6.80484 15.6493C6.99477 15.8392 7.27368 16.0667 7.64169 16.3318C8.00978 16.597 8.41728 16.8581 8.86441 17.1156C9.31163 17.3725 9.8319 17.5823 10.4255 17.7445C11.019 17.9068 11.5967 17.972 12.1586 17.9405H13.5238C13.8007 17.9166 14.0105 17.8296 14.153 17.6793L14.2003 17.6198C14.232 17.5726 14.2618 17.4992 14.2892 17.4004C14.317 17.3015 14.3308 17.1926 14.3308 17.074C14.3227 16.7338 14.3486 16.4271 14.4078 16.1541C14.4669 15.8812 14.5344 15.6755 14.6098 15.5369C14.6852 15.3984 14.7703 15.2816 14.8649 15.1869C14.9598 15.0919 15.0274 15.0344 15.0671 15.0147C15.1065 14.9947 15.138 14.9812 15.1617 14.9731C15.3516 14.9098 15.5752 14.9711 15.8326 15.1573C16.0899 15.3432 16.3311 15.5729 16.5568 15.8458C16.7824 16.119 17.0534 16.4254 17.3699 16.7657C17.6866 17.106 17.9635 17.359 18.2008 17.5255L18.4381 17.6679C18.5966 17.763 18.8024 17.85 19.0557 17.9292C19.3085 18.0082 19.5301 18.028 19.7203 17.9885L22.7591 17.9411C23.0597 17.9411 23.2936 17.8913 23.4595 17.7926C23.6257 17.6937 23.7244 17.5847 23.7563 17.4661C23.788 17.3475 23.7897 17.2128 23.7623 17.0623C23.7342 16.9122 23.7064 16.8072 23.6788 16.7479Z" fill="#9C9CAA"/>
</svg>
